<?xml version="1.0" encoding="UTF-8" standalone="no"?>
<!-- Created with Inkscape (http://www.inkscape.org/) -->

<svg
   xmlns:dc="http://purl.org/dc/elements/1.1/"
   xmlns:cc="http://creativecommons.org/ns#"
   xmlns:rdf="http://www.w3.org/1999/02/22-rdf-syntax-ns#"
   xmlns:svg="http://www.w3.org/2000/svg"
   xmlns="http://www.w3.org/2000/svg"
   xmlns:sodipodi="http://sodipodi.sourceforge.net/DTD/sodipodi-0.dtd"
   xmlns:inkscape="http://www.inkscape.org/namespaces/inkscape"
   width="16"
   height="16"
   id="svg2"
   version="1.1"
   inkscape:version="0.48.0 r9654"
   sodipodi:docname="marker-stop.svg"
   inkscape:export-filename="D:\Work\MAIN\GPS\GGT-200\SRC\SITE\googleapp\gps-maps2\svg\marker-stop.png"
   inkscape:export-xdpi="90"
   inkscape:export-ydpi="90">
  <defs
     id="defs4" />
  <sodipodi:namedview
     id="base"
     pagecolor="#ffffff"
     bordercolor="#666666"
     borderopacity="1.0"
     inkscape:pageopacity="0.0"
     inkscape:pageshadow="2"
     inkscape:zoom="20.528194"
     inkscape:cx="-1.8248716"
     inkscape:cy="10.057348"
     inkscape:document-units="px"
     inkscape:current-layer="layer1"
     showgrid="true"
     inkscape:window-width="1600"
     inkscape:window-height="1151"
     inkscape:window-x="-4"
     inkscape:window-y="-4"
     inkscape:window-maximized="1">
    <inkscape:grid
       type="xygrid"
       id="grid2985"
       empspacing="2"
       visible="true"
       enabled="true"
       snapvisiblegridlinesonly="true"
       originx="0.5px"
       originy="0.5px"
       spacingx="0.5px"
       spacingy="0.5px"
       color="#0000ff"
       opacity="0.40784314"
       empcolor="#0000ff"
       empopacity="0.16078431" />
  </sodipodi:namedview>
  <metadata
     id="metadata7">
    <rdf:RDF>
      <cc:Work
         rdf:about="">
        <dc:format>image/svg+xml</dc:format>
        <dc:type
           rdf:resource="http://purl.org/dc/dcmitype/StillImage" />
        <dc:title></dc:title>
      </cc:Work>
    </rdf:RDF>
  </metadata>
  <g
     inkscape:label="Layer 1"
     inkscape:groupmode="layer"
     id="layer1">
    <path
       style="fill:none;stroke:#000000;stroke-width:2;stroke-linecap:round;stroke-linejoin:round;stroke-miterlimit:4;stroke-opacity:0.29411766;stroke-dasharray:none"
       d="m 14,2.5 c 0,0 0,4.5303547 0,7.5 0,1 -1,2 -2,2 -1.231622,0 -2,0 -3,0 L 8,15 7,12 3,12"
       id="path3770"
       inkscape:connector-curvature="0"
       sodipodi:nodetypes="csscccc" />
    <path
       style="fill:#37a4ff;fill-opacity:1;stroke:#000000;stroke-width:1;stroke-linecap:round;stroke-linejoin:round;stroke-miterlimit:4;stroke-opacity:1"
       d="M 3,0.5 C 2.169,0.5 1.5,1.169 1.5,2 l 0,8 c 0,0.831 0.669,1.5 1.5,1.5 l 3.5,0 1,4 1,-4 3.5,0 c 0.831,0 1.5,-0.669 1.5,-1.5 l 0,-8 C 13.5,1.169 12.831,0.5 12,0.5 z"
       id="rect2992"
       inkscape:connector-curvature="0"
       sodipodi:nodetypes="sssscccsssss" />
    <path
       style="fill:none;stroke:#000000;stroke-width:1px;stroke-linecap:round;stroke-linejoin:round;stroke-opacity:1"
       d="m 5.5,6.5 c 0,0 4,0.5 4,-2 0,-2 -2,-2 -4,-2 0,2 0,7 0,7"
       id="path3767"
       inkscape:connector-curvature="0"
       sodipodi:nodetypes="cscc" />
  </g>
</svg>
